<?xml version="1.0" standalone="no"?>
<!DOCTYPE svg PUBLIC "-//W3C//DTD SVG 20010904//EN"
 "http://www.w3.org/TR/2001/REC-SVG-20010904/DTD/svg10.dtd">
<svg version="1.0" xmlns="http://www.w3.org/2000/svg"
 width="291.000000pt" height="151.000000pt" viewBox="0 0 291.000000 151.000000"
 preserveAspectRatio="xMidYMid meet">
<metadata>
Created by potrace 1.16, written by Peter Selinger 2001-2019
</metadata>
<g transform="translate(0.000000,151.000000) scale(0.100000,-0.100000)"
fill="#000000" stroke="none">
<path d="M845 1421 c-84 -22 -182 -99 -217 -171 -42 -87 -134 -285 -175 -380
-8 -19 -28 -62 -43 -95 -37 -79 -96 -206 -127 -275 -14 -30 -39 -84 -56 -120
-73 -154 -125 -276 -121 -282 3 -4 67 -7 142 -5 121 2 142 5 182 25 46 24 100
69 100 84 0 4 14 29 30 55 16 26 30 55 30 65 0 10 5 18 10 18 6 0 10 6 10 13
0 10 51 130 194 452 40 89 87 191 122 265 l32 65 19 -45 c20 -45 65 -141 129
-277 19 -39 34 -74 34 -77 0 -3 17 -43 39 -88 21 -46 51 -112 67 -148 16 -35
55 -117 87 -181 63 -130 114 -186 187 -208 38 -11 256 -18 266 -8 4 3 -32 88
-106 252 -5 11 -19 43 -30 70 -30 70 -52 119 -89 197 -17 37 -31 69 -31 71 0
3 -18 43 -39 89 -22 45 -48 106 -59 133 -67 170 -167 365 -211 412 -58 62
-143 95 -256 99 -49 2 -103 0 -120 -5z"/>
<path d="M1900 1420 c-8 -5 -37 -19 -64 -32 -44 -21 -146 -110 -146 -128 0 -4
-27 -65 -61 -136 -34 -71 -74 -156 -89 -189 -51 -108 -54 -87 41 -293 22 -46
39 -87 39 -90 0 -4 13 -33 29 -64 30 -60 40 -61 56 -9 7 24 71 160 186 398 32
68 59 127 59 133 0 5 4 10 9 10 5 0 11 10 14 23 4 12 13 31 21 42 14 19 15 19
27 -10 7 -17 38 -85 71 -153 32 -68 58 -125 58 -127 0 -5 31 -72 95 -211 24
-50 46 -101 50 -113 19 -60 129 -265 161 -301 59 -65 96 -76 256 -72 l138 3
-22 42 c-12 23 -23 44 -23 47 -1 3 -6 16 -12 30 -25 60 -43 100 -78 175 -20
44 -49 107 -64 140 -15 33 -60 128 -99 211 -40 83 -72 154 -72 157 0 3 -23 54
-51 113 -28 60 -68 145 -89 190 -45 95 -94 148 -176 189 -52 27 -70 30 -154
31 -52 1 -102 -2 -110 -6z"/>
<path d="M931 639 c-35 -14 -50 -39 -51 -80 0 -48 28 -79 79 -86 35 -5 44 -2
71 25 20 21 30 40 30 61 0 60 -71 105 -129 80z"/>
<path d="M1973 643 c-53 -10 -81 -93 -48 -141 22 -30 73 -43 107 -25 35 17 48
42 48 92 0 36 -4 44 -32 61 -18 11 -37 19 -43 19 -5 -1 -20 -4 -32 -6z"/>
</g>
</svg>
